<svg xmlns="http://www.w3.org/2000/svg" viewBox="760 165 690 575">
<path fill="black" d="
M 773.00 726.00
C 784.86 729.85 799.39 724.37 812.00 726.00 C 824.61 727.63 839.04 725.38 852.00 726.00 C 864.96 726.62 878.95 725.99 892.00 726.00
C 892.00 726.00 892.74 726.25 893.00 726.00
C 893.68 718.49 893.34 709.85 894.00 703.00
C 893.95 649.49 913.17 592.83 937.70 547.70 C 962.22 502.56 992.68 472.83 1036.77 447.77 C 1080.86 422.71 1136.08 418.10 1180.00 393.00
C 1153.07 383.14 1124.57 376.00 1095.00 376.00
C 1089.33 376.00 1083.67 376.00 1078.00 376.00
C 991.54 378.10 915.54 419.17 857.75 484.75 C 799.96 550.34 767.95 637.46 770.00 726.00
C 770.84 726.32 772.20 725.60 773.00 726.00 Z"/>
<path fill="black" d="
M 1219.00 458.00
C 1215.82 458.50 1213.01 459.09 1210.00 460.00
C 1178.20 474.70 1144.07 475.59 1107.00 475.00
C 1106.98 475.97 1110.01 476.22 1108.00 477.00
C 1109.09 477.17 1111.40 477.76 1113.00 478.00
C 1145.20 482.75 1174.19 498.80 1199.00 520.00
C 1204.32 524.55 1209.50 529.73 1214.00 535.00
C 1259.62 587.54 1275.18 656.54 1274.00 726.00
C 1315.34 726.00 1356.67 726.00 1398.00 726.00
C 1398.40 696.39 1393.69 659.01 1386.93 632.07 C 1380.16 605.14 1371.37 579.19 1358.77 556.23 C 1346.17 533.27 1334.22 511.39 1316.92 493.08 C 1299.62 474.77 1286.31 452.89 1264.00 442.00
C 1256.94 438.55 1250.44 447.59 1243.01 450.01 C 1235.58 452.43 1227.16 456.73 1219.00 458.00 Z"/>
<path fill="black" d="
M 1260.00 250.00
C 1257.14 254.12 1268.92 258.64 1272.08 261.92 C 1275.24 265.19 1282.87 269.09 1287.25 272.75 C 1291.62 276.42 1298.16 279.53 1302.75 284.25 C 1307.35 288.97 1300.34 295.56 1297.70 300.70 C 1295.06 305.83 1290.13 310.87 1287.23 316.23 C 1284.33 321.59 1280.12 327.80 1277.00 333.00
C 1273.46 338.90 1268.56 344.07 1264.00 349.00
C 1258.99 355.87 1253.53 362.53 1248.00 369.00
C 1243.27 374.53 1237.81 380.68 1232.00 385.00
C 1225.55 389.79 1219.24 395.07 1213.00 400.00
C 1181.16 425.13 1140.32 436.11 1102.00 446.00
C 1100.22 446.46 1098.83 446.75 1097.00 447.00
C 1071.28 454.31 1041.27 467.69 1020.00 485.00
C 1019.72 485.23 1019.26 485.77 1019.00 486.00
C 1019.40 487.18 1023.14 489.06 1024.00 489.00
C 1025.16 488.40 1026.08 487.71 1027.00 487.00
C 1031.60 483.42 1038.04 482.04 1044.00 481.00
C 1037.59 478.04 1055.11 476.73 1058.00 479.00
C 1058.48 478.85 1059.81 478.05 1060.00 478.00
C 1062.54 475.21 1075.04 475.00 1081.00 475.00
C 1125.63 475.00 1168.66 472.55 1210.00 460.00
C 1213.01 459.09 1215.82 458.50 1219.00 458.00
C 1231.33 452.98 1244.75 446.54 1257.00 440.00
C 1265.66 433.94 1277.05 427.89 1286.75 420.75 C 1296.46 413.61 1306.44 407.13 1315.08 399.08 C 1323.72 391.03 1331.17 384.08 1339.25 375.25 C 1347.33 366.41 1356.96 357.38 1360.00 348.00
C 1361.56 348.41 1362.69 347.54 1364.00 347.00
C 1364.93 345.72 1366.02 344.38 1367.00 343.00
C 1368.15 340.37 1370.88 335.34 1373.00 332.00
C 1374.80 331.64 1376.42 332.20 1375.00 334.00
C 1382.36 338.13 1389.78 345.44 1397.25 349.75 C 1404.72 354.07 1411.60 364.43 1420.00 366.00
C 1423.70 364.71 1422.61 354.33 1423.00 350.00 C 1423.39 345.67 1423.17 336.80 1423.78 331.78 C 1424.39 326.76 1424.55 317.64 1425.00 313.00
C 1425.00 311.00 1425.00 309.00 1425.00 307.00
C 1425.00 300.91 1425.27 294.35 1426.00 289.00
C 1426.00 287.67 1426.00 286.33 1426.00 285.00
C 1426.00 257.71 1424.86 227.24 1430.00 202.00
C 1430.64 194.77 1432.39 186.17 1430.00 179.00
C 1424.03 177.43 1413.67 186.10 1407.23 187.23 C 1400.79 188.36 1393.54 194.61 1386.69 196.69 C 1379.85 198.77 1372.22 202.86 1365.23 205.23 C 1358.24 207.60 1351.31 212.24 1344.08 214.08 C 1336.84 215.91 1330.75 221.32 1323.68 223.68 C 1316.61 226.04 1308.90 228.92 1302.23 232.23 C 1295.56 235.54 1287.55 237.54 1281.22 241.22 C 1274.90 244.91 1265.36 245.07 1260.00 250.00 Z"/>
<path fill="black" d="
M 1102.00 446.00
C 1140.32 436.11 1181.16 425.13 1213.00 400.00
C 1219.94 393.06 1226.35 386.16 1233.75 380.75 C 1241.15 375.34 1247.18 366.34 1253.25 359.25 C 1259.33 352.17 1266.63 343.96 1271.32 336.32 C 1276.01 328.69 1284.43 320.50 1287.75 312.75 C 1291.07 305.01 1302.83 294.57 1301.07 286.92 C 1299.31 279.28 1281.99 273.52 1278.25 268.75 C 1274.52 263.97 1252.90 256.52 1260.00 250.00
C 1265.36 245.07 1274.90 244.91 1281.22 241.22 C 1287.55 237.54 1295.56 235.54 1302.23 232.23 C 1308.90 228.92 1316.61 226.04 1323.68 223.68 C 1330.75 221.32 1336.84 215.91 1344.08 214.08 C 1351.31 212.24 1358.24 207.60 1365.23 205.23 C 1372.22 202.86 1379.85 198.77 1386.69 196.69 C 1393.54 194.61 1400.79 188.36 1407.23 187.23 C 1413.67 186.10 1424.03 177.43 1430.00 179.00
C 1434.72 180.24 1433.00 190.48 1433.00 194.00
C 1434.69 192.45 1433.69 189.28 1437.00 189.00
C 1435.43 184.63 1433.83 181.27 1435.00 176.00
C 1430.57 177.83 1429.91 176.30 1427.00 173.00
C 1423.09 179.93 1418.48 168.78 1412.00 176.00
C 1412.03 170.50 1405.60 173.98 1404.00 170.00
C 1402.19 173.78 1409.20 174.35 1407.00 177.00
C 1409.54 176.88 1411.12 175.78 1413.00 178.00
C 1407.86 178.98 1409.95 179.32 1412.00 182.00
C 1409.85 183.82 1405.12 180.53 1406.00 185.00
C 1399.84 181.85 1390.97 192.01 1383.00 191.00
C 1382.92 196.63 1374.17 198.60 1372.00 196.00
C 1367.92 200.71 1362.53 202.61 1355.00 203.00
C 1353.41 209.32 1347.97 206.17 1344.70 209.70 C 1341.42 213.22 1332.57 215.37 1331.00 211.00
C 1330.38 213.51 1330.17 215.74 1328.00 218.00
C 1324.91 215.46 1320.69 221.39 1317.23 221.23 C 1313.77 221.07 1307.21 223.59 1309.00 226.00
C 1304.09 226.63 1301.96 227.02 1302.00 222.00
C 1300.52 224.81 1296.93 227.40 1297.00 231.00
C 1293.56 231.57 1290.30 233.59 1287.00 232.00
C 1284.90 237.84 1277.42 237.87 1272.25 239.80 C 1267.07 241.74 1261.69 246.10 1257.00 247.00
C 1251.71 259.15 1269.06 258.56 1270.00 269.00
C 1272.56 263.40 1273.76 270.65 1277.90 271.10 C 1282.05 271.54 1280.73 278.68 1283.00 281.00
C 1284.42 278.28 1287.88 281.17 1286.00 277.00
C 1289.02 277.68 1289.07 279.59 1288.00 282.00
C 1291.71 279.52 1296.01 283.52 1295.00 287.00
C 1296.94 285.31 1298.55 288.05 1300.00 289.00
C 1297.28 289.53 1292.68 289.15 1294.00 294.00
C 1294.62 292.26 1297.63 288.95 1298.00 293.00
C 1295.46 295.13 1296.75 297.81 1293.00 295.00
C 1294.55 300.13 1291.01 306.13 1286.00 306.00
C 1289.31 314.34 1277.20 322.01 1272.19 327.75 C 1267.19 333.50 1265.53 346.42 1257.00 348.00
C 1257.63 355.38 1248.30 360.75 1244.75 366.41 C 1241.20 372.07 1234.70 375.75 1229.08 381.08 C 1223.46 386.41 1216.61 390.65 1213.00 396.00
C 1209.62 394.09 1207.00 397.69 1207.00 401.00
C 1195.60 404.91 1184.69 412.38 1175.00 419.00
C 1171.51 417.09 1165.86 416.57 1163.00 420.00
C 1165.53 421.13 1167.25 419.72 1170.00 420.00
C 1159.18 428.29 1151.35 430.86 1139.22 434.22 C 1127.09 437.58 1113.18 440.87 1102.00 446.00 Z"/>
</svg>
